<svg width="20" height="20" viewBox="0 0 20 20" fill="none" xmlns="http://www.w3.org/2000/svg">
<path d="M14.4806 0H5.51916C2.4759 0 0 2.47601 0 5.51928V14.4807C0 17.5241 2.4759 20 5.51916 20H14.4806C17.5241 20 20 17.524 20 14.4807V5.51928C20.0001 2.47601 17.5241 0 14.4806 0ZM18.2256 14.4807C18.2256 16.5456 16.5456 18.2255 14.4807 18.2255H5.51916C3.45435 18.2256 1.7745 16.5456 1.7745 14.4807V5.51928C1.7745 3.45447 3.45435 1.7745 5.51916 1.7745H14.4806C16.5455 1.7745 18.2255 3.45447 18.2255 5.51928V14.4807H18.2256Z" fill="white" fill-opacity="0.3"/>
<path d="M9.99993 4.8468C7.15825 4.8468 4.84644 7.15862 4.84644 10.0003C4.84644 12.8419 7.15825 15.1536 9.99993 15.1536C12.8416 15.1536 15.1534 12.8419 15.1534 10.0003C15.1534 7.15862 12.8416 4.8468 9.99993 4.8468ZM9.99993 13.3789C8.13683 13.3789 6.62093 11.8633 6.62093 10.0002C6.62093 8.13696 8.13671 6.62118 9.99993 6.62118C11.8632 6.62118 13.3789 8.13696 13.3789 10.0002C13.3789 11.8633 11.863 13.3789 9.99993 13.3789Z" fill="white" fill-opacity="0.3"/>
<path d="M15.3697 3.34216C15.0278 3.34216 14.6919 3.48057 14.4505 3.72309C14.2078 3.96442 14.0684 4.30039 14.0684 4.64346C14.0684 4.98547 14.208 5.32132 14.4505 5.56383C14.6918 5.80516 15.0278 5.94476 15.3697 5.94476C15.7127 5.94476 16.0475 5.80516 16.29 5.56383C16.5325 5.32132 16.671 4.98535 16.671 4.64346C16.671 4.30039 16.5325 3.96442 16.29 3.72309C16.0487 3.48057 15.7127 3.34216 15.3697 3.34216Z" fill="white" fill-opacity="0.3"/>
</svg>
