<svg width="20" height="20" viewBox="0 0 20 20" fill="none" xmlns="http://www.w3.org/2000/svg">
<path fill-rule="evenodd" clip-rule="evenodd" d="M17.005 2.90667C15.1333 1.03333 12.645 0.000833333 9.99417 0C4.53167 0 0.0858333 4.445 0.0833333 9.91C0.0825 11.6567 0.539167 13.3617 1.40667 14.865L0 20L5.25333 18.6217C6.70083 19.4117 8.33083 19.8275 9.98917 19.8283H9.99333C15.455 19.8283 19.9017 15.3825 19.9042 9.9175C19.9058 7.27 18.8758 4.77917 17.005 2.90667ZM9.99417 18.1542H9.99083C8.5125 18.1542 7.06333 17.7567 5.79833 17.0058L5.4975 16.8275L2.38 17.645L3.2125 14.605L3.01667 14.2933C2.19167 12.9817 1.75667 11.4658 1.7575 9.91C1.75917 5.36833 5.455 1.67333 9.99833 1.67333C12.1983 1.67333 14.2667 2.53167 15.8217 4.08833C17.3767 5.64583 18.2325 7.715 18.2317 9.91583C18.2292 14.4592 14.5342 18.1542 9.99417 18.1542ZM14.5125 11.985C14.265 11.8608 13.0475 11.2617 12.82 11.1792C12.5933 11.0967 12.4283 11.055 12.2625 11.3025C12.0967 11.55 11.6233 12.1083 11.4783 12.2742C11.3342 12.4392 11.1892 12.46 10.9417 12.3358C10.6942 12.2117 9.89583 11.9508 8.95 11.1067C8.21417 10.45 7.71667 9.63917 7.5725 9.39083C7.42833 9.1425 7.5575 9.00917 7.68083 8.88583C7.7925 8.775 7.92833 8.59667 8.0525 8.45167C8.1775 8.30833 8.21833 8.205 8.30167 8.03917C8.38417 7.87417 8.34333 7.72917 8.28083 7.605C8.21833 7.48167 7.72333 6.2625 7.5175 5.76667C7.31667 5.28333 7.1125 5.34917 6.96 5.34167C6.81583 5.33417 6.65083 5.33333 6.485 5.33333C6.32 5.33333 6.05167 5.395 5.825 5.64333C5.59833 5.89167 4.95833 6.49083 4.95833 7.70917C4.95833 8.92833 5.84583 10.1058 5.96917 10.2708C6.0925 10.4358 7.715 12.9375 10.1992 14.01C10.79 14.265 11.2517 14.4175 11.6108 14.5317C12.2042 14.72 12.7442 14.6933 13.1708 14.63C13.6467 14.5592 14.6358 14.0308 14.8425 13.4525C15.0492 12.8742 15.0492 12.3775 14.9867 12.275C14.925 12.1708 14.76 12.1092 14.5125 11.985Z" fill="white" fill-opacity="0.3"/>
</svg>
